<svg xmlns="http://www.w3.org/2000/svg" width="900" height="2100" viewBox="0 0 900 2100" role="img" aria-label="Classic Wedding — sample illustration, design mockup"><title>Classic Wedding — sample illustration, design mockup</title><rect x="0" y="0" width="900" height="2100" rx="0" fill="#faf4e7" /><rect x="35" y="35" width="830" height="2030" rx="0" fill="none" stroke="#cda968" stroke-width="3"/><rect x="49" y="49" width="802" height="2002" rx="0" fill="none" stroke="#dfcfb1" stroke-width="2"/><text x="450" y="152" font-size="24" fill="#455440" font-family="Arial, sans-serif" text-anchor="middle" letter-spacing="4">TOGETHER IS A BEAUTIFUL PLACE</text><g transform="rotate(0 450 487.5)"><rect x="93" y="233" width="714" height="509" rx="3" fill="#fffdf5" /><svg x="110" y="250" width="680" height="475" viewBox="0 0 720 440" preserveAspectRatio="xMidYMid slice" overflow="hidden"><svg viewBox="0 0 720 440" preserveAspectRatio="xMidYMid slice" width="100%" height="100%"><rect width="720" height="440" fill="#d9dfd4"/><path d="M0 350Q170 150 360 320T720 250V440H0Z" fill="#bdc7b8"/><g transform="translate(145 0)"><ellipse cx="0" cy="450" rx="120" ry="200" fill="#f8f1df"/><ellipse cy="178" rx="73" ry="96" fill="#443b35"/><ellipse cy="200" rx="57" ry="72" fill="#d7a67e"/><path d="M-60 180Q-70 70 50 120L60 180Q20 170 0 132Q-20 165-60 180" fill="#443b35"/><path d="M-23 201h7m32 0h7M-18 230Q0 249 18 230" fill="none" stroke="#563c30" stroke-width="5" stroke-linecap="round"/></g><g transform="translate(365 0)"><ellipse cx="0" cy="450" rx="120" ry="200" fill="#69816e"/><ellipse cy="178" rx="73" ry="96" fill="#443b35"/><ellipse cy="200" rx="57" ry="72" fill="#b88060"/><path d="M-60 180Q-70 70 50 120L60 180Q20 170 0 132Q-20 165-60 180" fill="#443b35"/><path d="M-23 201h7m32 0h7M-18 230Q0 249 18 230" fill="none" stroke="#563c30" stroke-width="5" stroke-linecap="round"/></g><g transform="translate(585 0)"><ellipse cx="0" cy="450" rx="120" ry="200" fill="#b77f68"/><ellipse cy="178" rx="73" ry="96" fill="#443b35"/><ellipse cy="200" rx="57" ry="72" fill="#e0b48f"/><path d="M-60 180Q-70 70 50 120L60 180Q20 170 0 132Q-20 165-60 180" fill="#443b35"/><path d="M-23 201h7m32 0h7M-18 230Q0 249 18 230" fill="none" stroke="#563c30" stroke-width="5" stroke-linecap="round"/></g><rect y="409" width="720" height="31" fill="#ffffff" fill-opacity=".78"/><text x="360" y="431" font-size="17" fill="#465044" font-family="Arial, sans-serif" text-anchor="middle" letter-spacing="3">SAMPLE ILLUSTRATION</text></svg></svg></g><g transform="rotate(0 450 1002.5)"><rect x="93" y="748" width="714" height="509" rx="3" fill="#fffdf5" /><svg x="110" y="765" width="680" height="475" viewBox="0 0 720 440" preserveAspectRatio="xMidYMid slice" overflow="hidden"><svg viewBox="0 0 720 440" preserveAspectRatio="xMidYMid slice" width="100%" height="100%"><rect width="720" height="440" fill="#e3d4c8"/><path d="M0 350Q170 150 360 320T720 250V440H0Z" fill="#bdc7b8"/><g transform="translate(145 0)"><ellipse cx="0" cy="450" rx="120" ry="200" fill="#f8f1df"/><ellipse cy="178" rx="73" ry="96" fill="#443b35"/><ellipse cy="200" rx="57" ry="72" fill="#d7a67e"/><path d="M-60 180Q-70 70 50 120L60 180Q20 170 0 132Q-20 165-60 180" fill="#443b35"/><path d="M-23 201h7m32 0h7M-18 230Q0 249 18 230" fill="none" stroke="#563c30" stroke-width="5" stroke-linecap="round"/></g><g transform="translate(365 22)"><ellipse cx="0" cy="450" rx="120" ry="200" fill="#69816e"/><ellipse cy="178" rx="73" ry="96" fill="#443b35"/><ellipse cy="200" rx="57" ry="72" fill="#b88060"/><path d="M-60 180Q-70 70 50 120L60 180Q20 170 0 132Q-20 165-60 180" fill="#443b35"/><path d="M-23 201h7m32 0h7M-18 230Q0 249 18 230" fill="none" stroke="#563c30" stroke-width="5" stroke-linecap="round"/></g><g transform="translate(585 0)"><ellipse cx="0" cy="450" rx="120" ry="200" fill="#b77f68"/><ellipse cy="178" rx="73" ry="96" fill="#443b35"/><ellipse cy="200" rx="57" ry="72" fill="#e0b48f"/><path d="M-60 180Q-70 70 50 120L60 180Q20 170 0 132Q-20 165-60 180" fill="#443b35"/><path d="M-23 201h7m32 0h7M-18 230Q0 249 18 230" fill="none" stroke="#563c30" stroke-width="5" stroke-linecap="round"/></g><rect y="409" width="720" height="31" fill="#ffffff" fill-opacity=".78"/><text x="360" y="431" font-size="17" fill="#465044" font-family="Arial, sans-serif" text-anchor="middle" letter-spacing="3">SAMPLE ILLUSTRATION</text></svg></svg></g><g transform="rotate(0 450 1517.5)"><rect x="93" y="1263" width="714" height="509" rx="3" fill="#fffdf5" /><svg x="110" y="1280" width="680" height="475" viewBox="0 0 720 440" preserveAspectRatio="xMidYMid slice" overflow="hidden"><svg viewBox="0 0 720 440" preserveAspectRatio="xMidYMid slice" width="100%" height="100%"><rect width="720" height="440" fill="#d6dde1"/><path d="M0 350Q170 150 360 320T720 250V440H0Z" fill="#bdc7b8"/><g transform="translate(145 0)"><ellipse cx="0" cy="450" rx="120" ry="200" fill="#f8f1df"/><ellipse cy="178" rx="73" ry="96" fill="#443b35"/><ellipse cy="200" rx="57" ry="72" fill="#d7a67e"/><path d="M-60 180Q-70 70 50 120L60 180Q20 170 0 132Q-20 165-60 180" fill="#443b35"/><path d="M-23 201h7m32 0h7M-18 230Q0 249 18 230" fill="none" stroke="#563c30" stroke-width="5" stroke-linecap="round"/><path d="M70 300l35-70m-24 22l-8-29" stroke="#d7a67e" stroke-width="18" stroke-linecap="round"/></g><g transform="translate(365 0)"><ellipse cx="0" cy="450" rx="120" ry="200" fill="#69816e"/><ellipse cy="178" rx="73" ry="96" fill="#443b35"/><ellipse cy="200" rx="57" ry="72" fill="#b88060"/><path d="M-60 180Q-70 70 50 120L60 180Q20 170 0 132Q-20 165-60 180" fill="#443b35"/><path d="M-23 201h7m32 0h7M-18 230Q0 249 18 230" fill="none" stroke="#563c30" stroke-width="5" stroke-linecap="round"/><path d="M70 300l35-70m-24 22l-8-29" stroke="#d7a67e" stroke-width="18" stroke-linecap="round"/></g><g transform="translate(585 0)"><ellipse cx="0" cy="450" rx="120" ry="200" fill="#b77f68"/><ellipse cy="178" rx="73" ry="96" fill="#443b35"/><ellipse cy="200" rx="57" ry="72" fill="#e0b48f"/><path d="M-60 180Q-70 70 50 120L60 180Q20 170 0 132Q-20 165-60 180" fill="#443b35"/><path d="M-23 201h7m32 0h7M-18 230Q0 249 18 230" fill="none" stroke="#563c30" stroke-width="5" stroke-linecap="round"/><path d="M70 300l35-70m-24 22l-8-29" stroke="#d7a67e" stroke-width="18" stroke-linecap="round"/></g><rect y="409" width="720" height="31" fill="#ffffff" fill-opacity=".78"/><text x="360" y="431" font-size="17" fill="#465044" font-family="Arial, sans-serif" text-anchor="middle" letter-spacing="3">SAMPLE ILLUSTRATION</text></svg></svg></g><g transform="translate(50 360) rotate(-10) scale(1)"><path d="M0 0Q45-130 8-290" fill="none" stroke="#788465" stroke-width="4"/><ellipse cx="33" cy="-30" rx="13" ry="33" transform="rotate(40 33 -30)" fill="#728466"/><ellipse cx="0" cy="-63" rx="13" ry="33" transform="rotate(-40 0 -63)" fill="#9da787"/><ellipse cx="33" cy="-96" rx="13" ry="33" transform="rotate(40 33 -96)" fill="#728466"/><ellipse cx="0" cy="-129" rx="13" ry="33" transform="rotate(-40 0 -129)" fill="#9da787"/><ellipse cx="33" cy="-162" rx="13" ry="33" transform="rotate(40 33 -162)" fill="#728466"/><ellipse cx="0" cy="-195" rx="13" ry="33" transform="rotate(-40 0 -195)" fill="#9da787"/><ellipse cx="33" cy="-228" rx="13" ry="33" transform="rotate(40 33 -228)" fill="#728466"/></g><g transform="translate(845 1745) rotate(180) scale(1)"><path d="M0 0Q45-130 8-290" fill="none" stroke="#788465" stroke-width="4"/><ellipse cx="33" cy="-30" rx="13" ry="33" transform="rotate(40 33 -30)" fill="#728466"/><ellipse cx="0" cy="-63" rx="13" ry="33" transform="rotate(-40 0 -63)" fill="#9da787"/><ellipse cx="33" cy="-96" rx="13" ry="33" transform="rotate(40 33 -96)" fill="#728466"/><ellipse cx="0" cy="-129" rx="13" ry="33" transform="rotate(-40 0 -129)" fill="#9da787"/><ellipse cx="33" cy="-162" rx="13" ry="33" transform="rotate(40 33 -162)" fill="#728466"/><ellipse cx="0" cy="-195" rx="13" ry="33" transform="rotate(-40 0 -195)" fill="#9da787"/><ellipse cx="33" cy="-228" rx="13" ry="33" transform="rotate(40 33 -228)" fill="#728466"/></g><g transform="translate(60 2030) rotate(0) scale(0.8)"><path d="M0 0Q45-130 8-290" fill="none" stroke="#788465" stroke-width="4"/><ellipse cx="33" cy="-30" rx="13" ry="33" transform="rotate(40 33 -30)" fill="#728466"/><ellipse cx="0" cy="-63" rx="13" ry="33" transform="rotate(-40 0 -63)" fill="#9da787"/><ellipse cx="33" cy="-96" rx="13" ry="33" transform="rotate(40 33 -96)" fill="#728466"/><ellipse cx="0" cy="-129" rx="13" ry="33" transform="rotate(-40 0 -129)" fill="#9da787"/><ellipse cx="33" cy="-162" rx="13" ry="33" transform="rotate(40 33 -162)" fill="#728466"/><ellipse cx="0" cy="-195" rx="13" ry="33" transform="rotate(-40 0 -195)" fill="#9da787"/><ellipse cx="33" cy="-228" rx="13" ry="33" transform="rotate(40 33 -228)" fill="#728466"/></g><g transform="translate(65 75) scale(1.3)"><ellipse cx="0" cy="-30" rx="14" ry="30" fill="#fff8e7" stroke="#dec99f" stroke-width="2" transform="rotate(0)"/><ellipse cx="0" cy="-30" rx="14" ry="30" fill="#fff8e7" stroke="#dec99f" stroke-width="2" transform="rotate(36)"/><ellipse cx="0" cy="-30" rx="14" ry="30" fill="#fff8e7" stroke="#dec99f" stroke-width="2" transform="rotate(72)"/><ellipse cx="0" cy="-30" rx="14" ry="30" fill="#fff8e7" stroke="#dec99f" stroke-width="2" transform="rotate(108)"/><ellipse cx="0" cy="-30" rx="14" ry="30" fill="#fff8e7" stroke="#dec99f" stroke-width="2" transform="rotate(144)"/><ellipse cx="0" cy="-30" rx="14" ry="30" fill="#fff8e7" stroke="#dec99f" stroke-width="2" transform="rotate(180)"/><ellipse cx="0" cy="-30" rx="14" ry="30" fill="#fff8e7" stroke="#dec99f" stroke-width="2" transform="rotate(216)"/><ellipse cx="0" cy="-30" rx="14" ry="30" fill="#fff8e7" stroke="#dec99f" stroke-width="2" transform="rotate(252)"/><ellipse cx="0" cy="-30" rx="14" ry="30" fill="#fff8e7" stroke="#dec99f" stroke-width="2" transform="rotate(288)"/><ellipse cx="0" cy="-30" rx="14" ry="30" fill="#fff8e7" stroke="#dec99f" stroke-width="2" transform="rotate(324)"/><circle r="17" fill="#cda968"/><circle r="8" fill="#e5cc91"/></g><g transform="translate(845 2020) scale(1.3)"><ellipse cx="0" cy="-30" rx="14" ry="30" fill="#fff8e7" stroke="#dec99f" stroke-width="2" transform="rotate(0)"/><ellipse cx="0" cy="-30" rx="14" ry="30" fill="#fff8e7" stroke="#dec99f" stroke-width="2" transform="rotate(36)"/><ellipse cx="0" cy="-30" rx="14" ry="30" fill="#fff8e7" stroke="#dec99f" stroke-width="2" transform="rotate(72)"/><ellipse cx="0" cy="-30" rx="14" ry="30" fill="#fff8e7" stroke="#dec99f" stroke-width="2" transform="rotate(108)"/><ellipse cx="0" cy="-30" rx="14" ry="30" fill="#fff8e7" stroke="#dec99f" stroke-width="2" transform="rotate(144)"/><ellipse cx="0" cy="-30" rx="14" ry="30" fill="#fff8e7" stroke="#dec99f" stroke-width="2" transform="rotate(180)"/><ellipse cx="0" cy="-30" rx="14" ry="30" fill="#fff8e7" stroke="#dec99f" stroke-width="2" transform="rotate(216)"/><ellipse cx="0" cy="-30" rx="14" ry="30" fill="#fff8e7" stroke="#dec99f" stroke-width="2" transform="rotate(252)"/><ellipse cx="0" cy="-30" rx="14" ry="30" fill="#fff8e7" stroke="#dec99f" stroke-width="2" transform="rotate(288)"/><ellipse cx="0" cy="-30" rx="14" ry="30" fill="#fff8e7" stroke="#dec99f" stroke-width="2" transform="rotate(324)"/><circle r="17" fill="#cda968"/><circle r="8" fill="#e5cc91"/></g><g transform="translate(65 1950) scale(0.85)"><ellipse cx="0" cy="-30" rx="14" ry="30" fill="#fff8e7" stroke="#dec99f" stroke-width="2" transform="rotate(0)"/><ellipse cx="0" cy="-30" rx="14" ry="30" fill="#fff8e7" stroke="#dec99f" stroke-width="2" transform="rotate(36)"/><ellipse cx="0" cy="-30" rx="14" ry="30" fill="#fff8e7" stroke="#dec99f" stroke-width="2" transform="rotate(72)"/><ellipse cx="0" cy="-30" rx="14" ry="30" fill="#fff8e7" stroke="#dec99f" stroke-width="2" transform="rotate(108)"/><ellipse cx="0" cy="-30" rx="14" ry="30" fill="#fff8e7" stroke="#dec99f" stroke-width="2" transform="rotate(144)"/><ellipse cx="0" cy="-30" rx="14" ry="30" fill="#fff8e7" stroke="#dec99f" stroke-width="2" transform="rotate(180)"/><ellipse cx="0" cy="-30" rx="14" ry="30" fill="#fff8e7" stroke="#dec99f" stroke-width="2" transform="rotate(216)"/><ellipse cx="0" cy="-30" rx="14" ry="30" fill="#fff8e7" stroke="#dec99f" stroke-width="2" transform="rotate(252)"/><ellipse cx="0" cy="-30" rx="14" ry="30" fill="#fff8e7" stroke="#dec99f" stroke-width="2" transform="rotate(288)"/><ellipse cx="0" cy="-30" rx="14" ry="30" fill="#fff8e7" stroke="#dec99f" stroke-width="2" transform="rotate(324)"/><circle r="17" fill="#cda968"/><circle r="8" fill="#e5cc91"/></g><text x="450" y="1925" font-size="62" fill="#455440" font-family="Arial, sans-serif" style="font-family:Georgia,serif" text-anchor="middle" font-style="italic">Erwin &amp; Maria</text><text x="450" y="1993" font-size="25" fill="#455440" font-family="Arial, sans-serif" text-anchor="middle" letter-spacing="4">OCTOBER 7, 2026</text><text x="450" y="2054" font-size="35" fill="#b98d57" font-family="Arial, sans-serif" text-anchor="middle">♡</text></svg>